# xmcd CD database file
#
# Track frame offsets:
#	150
#	10355
#	24262
#	34722
#	50010
#	60147
#	72172
#	85045
#	100292
#	110127
#	119442
#	130480
#	144450
#	157952
#	170725
#	183297
#	194307
#	207420
#	217982
#	232025
#	246582
#	259940
#	271817
#	287290
#	300327
#	311455
#
# Disc length: 4296 seconds
#
# Revision: 0
# Processed by: cddbd v1.5.1PL0 Copyright (c) Steve Scherf et al.
# Submitted via: CDex 1.51
#
DISCID=7110c61a
DTITLE=バッキー白片 - ハワイアン・メモリーSince1968-2002
DYEAR=1900
DGENRE=Ethnic
TTITLE0=真珠貝の歌 Pearty Shells
TTITLE1=ケ・カリ・ ネイ・アウ Ke Kari Nei Au
TTITLE2=月の夜は Sophisticated Hula
TTITLE3=ワルツ・メドレー(ケアウカバとマナクーラの月) Keaukaha&Moon Manakur
TTITLE4=マウイ・ガール Maui Girl
TTITLE5=ミ・ネイ Mi Nei
TTITLE6=タイニー・バブルス Tiny Bubbles
TTITLE7=マカラプア Makalapua
TTITLE8=ワイキキの浜辺で On The Beach At Waikiki
TTITLE9=ヴァヒネ・アナミテ Vahine Anamite
TTITLE10=カイマナ・ヒラ Kaimana Hilla
TTITLE11=ラハイナ・ルナ Lahaina Luna
TTITLE12=南国の夜 On A Tropic Night
TTITLE13=小さな竹の橋の下で On A Little Bamboo Bridge
TTITLE14=ハワイアン・パラダイス Hawaiian Paradise
TTITLE15=タ・フ・ワ・フ・ワイ Ta Hu Wa Hu Wai
TTITLE16=アロマ Aloma
TTITLE17=ホノルルの月 Honolulu Moon
TTITLE18=ブルー・ハワイ Blue Hawaii
TTITLE19=フラ・メドレー(リリウエとヘアロハノホノルル)Liliue and He Aloha No Honolulu
TTITLE20=珊瑚礁の彼方 Beyond The Reef
TTITLE21=マリヒニ・メレ Malihini Mele
TTITLE22=ナ・レ・オ・ハワイ Na Lei O Hawaii
TTITLE23=アロハ・オエ Aloha Oe
TTITLE24=Tsunami
TTITLE25=波乗りジョニー
EXTD=
EXTT0=
EXTT1=
EXTT2=
EXTT3=
EXTT4=
EXTT5=
EXTT6=
EXTT7=
EXTT8=
EXTT9=
EXTT10=
EXTT11=
EXTT12=
EXTT13=
EXTT14=
EXTT15=
EXTT16=
EXTT17=
EXTT18=
EXTT19=
EXTT20=
EXTT21=
EXTT22=
EXTT23=
EXTT24=
EXTT25=
PLAYORDER=
